<?xml version="1.0" encoding="utf-8"?>
<!-- Generator: Adobe Illustrator 22.1.0, SVG Export Plug-In . SVG Version: 6.00 Build 0)  -->
<svg version="1.1" id="Vrstva_1" xmlns="http://www.w3.org/2000/svg" xmlns:xlink="http://www.w3.org/1999/xlink" x="0px" y="0px"
	 viewBox="0 0 425 136" style="enable-background:new 0 0 425 136;" xml:space="preserve">
<style type="text/css">
	.st0{fill:#EF7D00;}
	.st1{fill:#4A4A49;}
	.st2{fill:#FFFFFF;}
</style>
<path class="st0" d="M180.5,89.3c-4.3,0-7.8-0.4-10.7-1.2c-2.8-0.8-5.1-2-6.8-3.7s-2.9-3.9-3.6-6.5c-0.7-2.7-1.1-5.9-1.1-9.7v-6.8
	c0-3.6,0.4-6.8,1.1-9.4c0.8-2.7,2-4.9,3.9-6.6c1.8-1.7,4.2-3,7.2-3.9c3-0.8,6.8-1.3,11.3-1.3c1.5,0,2.9,0,4.1,0s2.5,0,3.7,0
	s2.4,0,3.7,0c1.2,0,2.6,0.1,4.1,0.1l-1.8,9.5c-2.2,0-4-0.1-5.5-0.1s-2.9,0-4,0s-2,0-2.8,0s-1.5,0-2.1,0c-2.2,0-4.1,0.2-5.5,0.5
	s-2.5,0.9-3.4,1.8c-0.8,0.9-1.4,2-1.7,3.6c-0.3,1.5-0.4,3.5-0.4,6v6.5c0,2.6,0.2,4.6,0.5,6.2c0.3,1.5,0.9,2.7,1.7,3.6
	c0.8,0.9,1.8,1.4,3.2,1.7c1.3,0.3,3,0.4,5,0.4h7v-8.9h-7.7l1.9-9.4H199v20.4c0,1.2-0.1,2.2-0.3,3.1c-0.2,0.9-0.7,1.7-1.3,2.3
	c-0.6,0.6-1.5,1.1-2.5,1.4c-1.1,0.3-2.4,0.5-4.1,0.5h-10.3V89.3z"/>
<path class="st0" d="M215.2,75c0,1.2,0.2,2.2,0.4,2.9c0.2,0.7,0.6,1.3,1.1,1.8s1.2,0.8,2.1,0.9c0.9,0.2,2,0.2,3.3,0.2
	c1.9,0,3.9,0,6.1,0s4.6,0,7.3-0.1l-1.6,8.5c-2.3,0.1-4.4,0.1-6.4,0.1s-4.1,0-6.5,0c-3.3,0-6-0.3-8.1-1c-2.2-0.7-3.9-1.7-5.2-3
	c-1.3-1.4-2.2-3.1-2.7-5.1s-0.8-4.4-0.8-7.2v-3.8c0-2.9,0.3-5.4,0.9-7.5s1.5-3.9,2.9-5.3s3.1-2.5,5.3-3.2c2.2-0.7,4.9-1.1,8.1-1.1
	c5.8,0,9.9,1.2,12.4,3.6s3.7,5.8,3.7,10.1v1.4c0,1.5-0.1,2.8-0.3,3.7c-0.2,1-0.5,1.7-1,2.3c-0.5,0.6-1.1,1-1.9,1.2s-1.7,0.3-2.9,0.3
	h-16.2V75z M221.1,60.2c-1.2,0-2.2,0.1-3,0.3c-0.8,0.2-1.4,0.6-1.8,1.1s-0.7,1.3-0.9,2.2c-0.2,0.9-0.2,2.1-0.2,3.6h11.9
	c0-1.5-0.1-2.7-0.2-3.6c-0.2-0.9-0.5-1.6-0.9-2.2c-0.5-0.5-1.1-0.9-1.8-1.1C223.3,60.3,222.3,60.2,221.1,60.2z"/>
<path class="st0" d="M259.4,52.2c3.2,0,5.9,0.3,8.2,0.8c2.2,0.6,4.1,1.5,5.5,2.8s2.4,3.1,3.1,5.3c0.6,2.2,1,5,1,8.3v3.8
	c0,3.3-0.3,6-1,8.2c-0.6,2.2-1.7,4-3.1,5.3s-3.2,2.3-5.5,2.9c-2.2,0.6-5,0.9-8.2,0.9s-5.9-0.3-8.2-0.9s-4.1-1.5-5.5-2.9
	c-1.4-1.3-2.5-3.1-3.1-5.3c-0.6-2.2-1-4.9-1-8.2v-3.8c0-3.3,0.3-6.1,1-8.3c0.6-2.2,1.7-4,3.1-5.3s3.3-2.3,5.5-2.8
	C253.5,52.4,256.2,52.2,259.4,52.2z M266.1,69c0-1.8-0.1-3.2-0.3-4.3c-0.2-1.1-0.5-1.9-1-2.5s-1.2-1-2-1.2c-0.9-0.2-1.9-0.3-3.3-0.3
	c-1.3,0-2.4,0.1-3.3,0.3c-0.8,0.2-1.5,0.6-2,1.2s-0.9,1.4-1.1,2.5s-0.3,2.5-0.3,4.3v4.4c0,1.8,0.1,3.2,0.3,4.3
	c0.2,1.1,0.6,1.9,1.1,2.5s1.2,1,2,1.2s1.9,0.3,3.3,0.3c1.3,0,2.4-0.1,3.3-0.3c0.8-0.2,1.5-0.6,2-1.2s0.8-1.4,1-2.5s0.3-2.5,0.3-4.3
	V69z"/>
<path class="st1" d="M283.1,89.3V65.6c0-2.5,0.3-4.6,1-6.4c0.7-1.7,1.7-3.1,3-4.1s2.9-1.8,4.8-2.2c1.9-0.4,4-0.7,6.4-0.7
	c5.2,0,9,1.3,11.4,4c2.3-2.7,6.1-4,11.6-4c2.3,0,4.4,0.2,6.3,0.7c1.9,0.4,3.5,1.2,4.8,2.2s2.3,2.4,3,4.1s1,3.8,1,6.4v23.7h-10.9
	V66.6c0-1-0.1-1.8-0.2-2.5s-0.4-1.3-0.7-1.7c-0.4-0.5-0.9-0.8-1.5-1c-0.7-0.2-1.6-0.3-2.7-0.3s-1.9,0.1-2.6,0.3
	c-0.7,0.2-1.2,0.5-1.6,0.9s-0.6,0.9-0.8,1.5c-0.1,0.6-0.2,1.4-0.2,2.2v23.3h-10.9V66.6c0-1-0.1-1.8-0.2-2.5s-0.3-1.3-0.7-1.7
	c-0.3-0.5-0.8-0.8-1.5-1s-1.6-0.3-2.7-0.3s-2.1,0.1-2.7,0.3c-0.7,0.2-1.2,0.5-1.5,1c-0.4,0.5-0.6,1-0.7,1.7s-0.2,1.5-0.2,2.5v22.7
	L283.1,89.3L283.1,89.3z"/>
<path class="st1" d="M360.3,52.2c3.2,0,5.9,0.3,8.2,0.8c2.2,0.6,4.1,1.5,5.5,2.8s2.4,3.1,3.1,5.3c0.6,2.2,1,5,1,8.3v3.8
	c0,3.3-0.3,6-1,8.2c-0.6,2.2-1.7,4-3.1,5.3s-3.2,2.3-5.5,2.9c-2.2,0.6-5,0.9-8.2,0.9s-5.9-0.3-8.2-0.9c-2.2-0.6-4.1-1.5-5.5-2.9
	c-1.4-1.3-2.5-3.1-3.1-5.3c-0.6-2.2-1-4.9-1-8.2v-3.8c0-3.3,0.3-6.1,1-8.3c0.6-2.2,1.7-4,3.1-5.3s3.3-2.3,5.5-2.8
	C354.3,52.4,357.1,52.2,360.3,52.2z M366.9,69c0-1.8-0.1-3.2-0.3-4.3c-0.2-1.1-0.5-1.9-1-2.5s-1.2-1-2-1.2c-0.9-0.2-1.9-0.3-3.3-0.3
	c-1.3,0-2.4,0.1-3.3,0.3c-0.8,0.2-1.5,0.6-2,1.2s-0.9,1.4-1.1,2.5s-0.3,2.5-0.3,4.3v4.4c0,1.8,0.1,3.2,0.3,4.3
	c0.2,1.1,0.6,1.9,1.1,2.5s1.2,1,2,1.2s1.9,0.3,3.3,0.3c1.3,0,2.4-0.1,3.3-0.3c0.8-0.2,1.5-0.6,2-1.2s0.8-1.4,1-2.5s0.3-2.5,0.3-4.3
	V69z"/>
<path class="st1" d="M419.1,73c0,3.2-0.3,5.9-0.9,8.1s-1.6,4-2.9,5.4s-3,2.4-5,3s-4.4,0.9-7.2,0.9c-1.9,0-3.5-0.2-4.8-0.5
	s-2.5-0.8-3.4-1.5v12.9H384V69.1c0-3.1,0.3-5.8,1-7.9c0.7-2.2,1.7-3.9,3.2-5.2c1.4-1.3,3.3-2.3,5.5-2.9s5-0.9,8.1-0.9
	s5.7,0.3,7.9,0.9c2.2,0.6,4,1.5,5.4,2.9c1.4,1.3,2.4,3.1,3.1,5.4c0.6,2.2,1,5,1,8.3V73H419.1z M401.5,81.8c1.3,0,2.4-0.1,3.3-0.3
	c0.8-0.2,1.5-0.6,2-1.2s0.8-1.5,1-2.6s0.3-2.6,0.3-4.4v-4c0-1.8-0.1-3.3-0.3-4.4c-0.2-1.1-0.5-2-1-2.6s-1.2-1-2-1.2
	s-1.9-0.3-3.2-0.3c-1.3,0-2.4,0.1-3.2,0.3c-0.8,0.2-1.5,0.6-2,1.2s-0.9,1.4-1.1,2.5s-0.3,2.5-0.3,4.3v5c0,1.6,0.1,2.9,0.3,3.9
	c0.2,1,0.6,1.8,1.1,2.3c0.5,0.6,1.2,1,2,1.2C399.1,81.7,400.2,81.8,401.5,81.8z"/>
<ellipse class="st1" cx="69.2" cy="68.7" rx="63" ry="63"/>
<g>
	<path class="st2" d="M104,90.5l21.9-38c-3.9,0.7-8.3,1.3-13.2,1.5c-6.2,0.3-13.2,0-20.9-1.1L104,90.5z"/>
</g>
<g>
	<path class="st0" d="M84.8,51.7c-4.2-0.8-8.5-1.9-13-3.2c-24.2-7.2-47.2-4.8-61.6-1.8c-2.9,7.8-4.3,16.1-3.9,24.8
		c0.2,4.5,0.9,8.9,2,13.1c12.8-3.2,34.5-6.5,58.7-1.8L84.8,51.7z"/>
</g>
<g>
	<path class="st2" d="M88.3,52.4c-0.1,0-0.2,0-0.2,0l-18,31.2c2.7,0.6,5.5,1.3,8.2,2.1c8.1,2.4,15.5,3.8,22.3,4.6L88.3,52.4z"/>
</g>
<g>
	<path class="st0" d="M132.1,66.1c-0.2-5-1-9.8-2.3-14.5l0,0l-22.2,39.1c8.8,0.4,15-0.4,21.2-1.7C131.2,81.9,132.5,74.2,132.1,66.1z
		"/>
</g>
</svg>
