<?xml version="1.0" encoding="UTF-8" standalone="no"?>
<!DOCTYPE svg PUBLIC "-//W3C//DTD SVG 1.1//EN"
"http://www.w3.org/Graphics/SVG/1.1/DTD/svg11.dtd">


<!-- Page 1 -->
<svg x="0" y="0" width="909" height="909" viewBox="0 0 909 909" version="1.1" xmlns="http://www.w3.org/2000/svg" xmlns:xlink="http://www.w3.org/1999/xlink"
style="display: block;margin-left: auto;margin-right: auto;">
<defs>

<style type="text/css"><![CDATA[

.g0_1{
fill: #4C4D4E;
}
.g1_1{
fill: #FFFFFF;
}
.g2_1{
fill: #F58220;
}

]]></style>

</defs>
<path d="M0,0
L0,909
L909,909
L909,0 Z " 
fill="#FFFFFF" stroke="none" />
<path d="M723.3,442.9c6.5,148,-108.2,273.2,-256.1,279.7C319.2,729.1,194,614.5,187.5,466.5C181,318.6,295.6,193.3,443.6,186.8c148,-6.5,273.2,108.2,279.7,256.1Z" class="g0_1" />
<path d="M603.7,547.2L696.8,385.6c-16.8,3.1,-35.5,5.4,-56.3,6.3c-26.5,1.2,-56.3,-.1,-89,-4.7Z" class="g1_1" />
<path d="M521.8,382.1C504,378.6,485.6,374.2,466.3,368.4C363.4,337.6,265.5,347.9,204.1,360.8c-12.2,33,-18.3,68.3,-16.6,105.7c.8,19.1,3.8,37.9,8.3,55.7c54.4,-13.6,146.8,-27.8,249.7,-7.6Z" class="g2_1" />
<path d="M536.7,385c-.3,-.1,-.6,-.2,-1,-.2L459.3,517.5c11.5,2.6,23.2,5.5,35,9c34.3,10.3,66,16.4,94.9,19.5Z" class="g1_1" />
<path d="M723.3,443.7c-.9,-21.4,-4.1,-41.9,-9.7,-61.6c0,0,-.1,0,0,0L619,548.5c37.7,1.7,64,-1.8,90.2,-7.1c10.3,-30.6,15.6,-63.6,14.1,-97.7Z" class="g2_1" />

</svg>
